0
SECTION
2
ENTITIES
0
LWPOLYLINE
8
OUTER
90
108
70
1
10
-110.000000
20
58.000000
10
-107.033407
20
61.193222
10
-103.360593
20
64.172444
10
-99.022000
20
66.937000
10
-94.058074
20
69.486222
10
-88.509259
20
71.819444
10
-82.416000
20
73.936000
10
-75.818741
20
75.835222
10
-68.757926
20
77.516444
10
-61.274000
20
78.979000
10
-53.407407
20
80.222222
10
-45.198593
20
81.245444
10
-36.688000
20
82.048000
10
-27.916074
20
82.629222
10
-18.923259
20
82.988444
10
-9.750000
20
83.125000
10
-0.436741
20
83.038222
10
8.976074
20
82.727444
10
18.448000
20
82.192000
10
27.938593
20
81.431222
10
37.407407
20
80.444444
10
46.814000
20
79.231000
10
56.117926
20
77.790222
10
65.278741
20
76.121444
10
74.256000
20
74.224000
10
83.009259
20
72.097222
10
91.498074
20
69.740444
10
99.682000
20
67.153000
10
107.520593
20
64.334222
10
114.973407
20
61.283444
10
122.000000
20
58.000000
10
123.186704
20
53.808160
10
124.243634
20
49.256944
10
125.166016
20
44.382812
10
125.949074
20
39.222222
10
126.588035
20
33.811632
10
127.078125
20
28.187500
10
127.414569
20
22.386285
10
127.592593
20
16.444444
10
127.607422
20
10.398438
10
127.454282
20
4.284722
10
127.128400
20
-1.860243
10
126.625000
20
-8.000000
10
125.939308
20
-14.098090
10
125.066551
20
-20.118056
10
124.001953
20
-26.023438
10
122.740741
20
-31.777778
10
121.278139
20
-37.344618
10
119.609375
20
-42.687500
10
117.729673
20
-47.769965
10
115.634259
20
-52.555556
10
113.318359
20
-57.007812
10
110.777199
20
-61.090278
10
108.006004
20
-64.766493
10
105.000000
20
-68.000000
10
99.943000
20
-68.812259
10
94.770667
20
-69.458074
10
89.481000
20
-69.951000
10
84.072000
20
-70.304593
10
78.541667
20
-70.532407
10
72.888000
20
-70.648000
10
67.109000
20
-70.664926
10
61.202667
20
-70.596741
10
55.167000
20
-70.457000
10
49.000000
20
-70.259259
10
42.699667
20
-70.017074
10
36.264000
20
-69.744000
10
29.691000
20
-69.453593
10
22.978667
20
-69.159407
10
16.125000
20
-68.875000
10
9.128000
20
-68.613926
10
1.985667
20
-68.389741
10
-5.304000
20
-68.216000
10
-12.743000
20
-68.106259
10
-20.333333
20
-68.074074
10
-28.077000
20
-68.133000
10
-35.976000
20
-68.296593
10
-44.032333
20
-68.578407
10
-52.248000
20
-68.992000
10
-60.625000
20
-69.550926
10
-69.165333
20
-70.268741
10
-77.871000
20
-71.159000
10
-86.744000
20
-72.235259
10
-95.786333
20
-73.511074
10
-105.000000
20
-75.000000
10
-108.204789
20
-73.413122
10
-111.075810
20
-70.950810
10
-113.623047
20
-67.685547
10
-115.856481
20
-63.689815
10
-117.786097
20
-59.036097
10
-119.421875
20
-53.796875
10
-120.773799
20
-48.044633
10
-121.851852
20
-41.851852
10
-122.666016
20
-35.291016
10
-123.226273
20
-28.434606
10
-123.542607
20
-21.355107
10
-123.625000
20
-14.125000
10
-123.483435
20
-6.816768
10
-123.127894
20
0.497106
10
-122.568359
20
7.744141
10
-121.814815
20
14.851852
10
-120.877242
20
21.747758
10
-119.765625
20
28.359375
10
-118.489945
20
34.614222
10
-117.060185
20
40.439815
10
-115.486328
20
45.763672
10
-113.778356
20
50.513310
10
-111.946253
20
54.616247
0
LWPOLYLINE
8
SCREEN
90
48
70
1
10
74.850000
20
47.650000
10
74.832890
20
47.911052
10
74.781852
20
48.167638
10
74.697759
20
48.415367
10
74.582051
20
48.650000
10
74.436707
20
48.867523
10
74.264214
20
49.064214
10
74.067523
20
49.236707
10
73.850000
20
49.382051
10
73.615367
20
49.497759
10
73.367638
20
49.581852
10
73.111052
20
49.632890
10
-44.850000
20
49.650000
10
-45.111052
20
49.632890
10
-45.367638
20
49.581852
10
-45.615367
20
49.497759
10
-45.850000
20
49.382051
10
-46.067523
20
49.236707
10
-46.264214
20
49.064214
10
-46.436707
20
48.867523
10
-46.582051
20
48.650000
10
-46.697759
20
48.415367
10
-46.781852
20
48.167638
10
-46.832890
20
47.911052
10
-46.850000
20
-39.650000
10
-46.832890
20
-39.911052
10
-46.781852
20
-40.167638
10
-46.697759
20
-40.415367
10
-46.582051
20
-40.650000
10
-46.436707
20
-40.867523
10
-46.264214
20
-41.064214
10
-46.067523
20
-41.236707
10
-45.850000
20
-41.382051
10
-45.615367
20
-41.497759
10
-45.367638
20
-41.581852
10
-45.111052
20
-41.632890
10
72.850000
20
-41.650000
10
73.111052
20
-41.632890
10
73.367638
20
-41.581852
10
73.615367
20
-41.497759
10
73.850000
20
-41.382051
10
74.067523
20
-41.236707
10
74.264214
20
-41.064214
10
74.436707
20
-40.867523
10
74.582051
20
-40.650000
10
74.697759
20
-40.415367
10
74.781852
20
-40.167638
10
74.832890
20
-39.911052
0
LWPOLYLINE
8
DECOR
90
64
70
1
10
-80.000000
20
-1.000000
10
-80.077044
20
1.842497
10
-80.307436
20
4.657619
10
-80.688955
20
7.418256
10
-81.217927
20
10.097820
10
-81.889260
20
12.670505
10
-82.696486
20
15.111537
10
-83.631833
20
17.397405
10
-84.686292
20
19.506097
10
-85.849707
20
21.417303
10
-87.110876
20
23.112619
10
-88.457652
20
24.575717
10
-89.877065
20
25.792506
10
-91.355445
20
26.751270
10
-92.878555
20
27.442773
10
-94.431726
20
27.860357
10
-96.000000
20
28.000000
10
-97.568274
20
27.860357
10
-99.121445
20
27.442773
10
-100.644555
20
26.751270
10
-102.122935
20
25.792506
10
-103.542348
20
24.575717
10
-104.889124
20
23.112619
10
-106.150293
20
21.417303
10
-107.313708
20
19.506097
10
-108.368167
20
17.397405
10
-109.303514
20
15.111537
10
-110.110740
20
12.670505
10
-110.782073
20
10.097820
10
-111.311045
20
7.418256
10
-111.692564
20
4.657619
10
-111.922956
20
1.842497
10
-112.000000
20
-1.000000
10
-111.922956
20
-3.842497
10
-111.692564
20
-6.657619
10
-111.311045
20
-9.418256
10
-110.782073
20
-12.097820
10
-110.110740
20
-14.670505
10
-109.303514
20
-17.111537
10
-108.368167
20
-19.397405
10
-107.313708
20
-21.506097
10
-106.150293
20
-23.417303
10
-104.889124
20
-25.112619
10
-103.542348
20
-26.575717
10
-102.122935
20
-27.792506
10
-100.644555
20
-28.751270
10
-99.121445
20
-29.442773
10
-97.568274
20
-29.860357
10
-96.000000
20
-30.000000
10
-94.431726
20
-29.860357
10
-92.878555
20
-29.442773
10
-91.355445
20
-28.751270
10
-89.877065
20
-27.792506
10
-88.457652
20
-26.575717
10
-87.110876
20
-25.112619
10
-85.849707
20
-23.417303
10
-84.686292
20
-21.506097
10
-83.631833
20
-19.397405
10
-82.696486
20
-17.111537
10
-81.889260
20
-14.670505
10
-81.217927
20
-12.097820
10
-80.688955
20
-9.418256
10
-80.307436
20
-6.657619
10
-80.077044
20
-3.842497
0
LWPOLYLINE
8
HOOD
90
60
70
1
10
-111.000000
20
57.000000
10
-106.625111
20
60.006370
10
-101.720889
20
62.824296
10
-96.318000
20
65.452000
10
-90.447111
20
67.887704
10
-84.138889
20
70.129630
10
-77.424000
20
72.176000
10
-70.333111
20
74.025037
10
-62.896889
20
75.674963
10
-55.146000
20
77.124000
10
-47.111111
20
78.370370
10
-38.822889
20
79.412296
10
-30.312000
20
80.248000
10
-21.609111
20
80.875704
10
-12.744889
20
81.293630
10
-3.750000
20
81.500000
10
5.344889
20
81.493037
10
14.509111
20
81.270963
10
23.712000
20
80.832000
10
32.922889
20
80.174370
10
42.111111
20
79.296296
10
51.246000
20
78.196000
10
60.296889
20
76.871704
10
69.233111
20
75.321630
10
78.024000
20
73.544000
10
86.638889
20
71.537037
10
95.047111
20
69.298963
10
103.218000
20
66.828000
10
111.120889
20
64.122370
10
118.725111
20
61.180296
10
126.000000
20
58.000000
10
119.476259
20
58.479889
10
112.716741
20
58.919111
10
105.739000
20
59.317000
10
98.560593
20
59.672889
10
91.199074
20
59.986111
10
83.672000
20
60.256000
10
75.996926
20
60.481889
10
68.191407
20
60.663111
10
60.273000
20
60.799000
10
52.259259
20
60.888889
10
44.167741
20
60.932111
10
36.016000
20
60.928000
10
27.821593
20
60.875889
10
19.602074
20
60.775111
10
11.375000
20
60.625000
10
3.157926
20
60.424889
10
-5.031593
20
60.174111
10
-13.176000
20
59.872000
10
-21.257741
20
59.517889
10
-29.259259
20
59.111111
10
-37.163000
20
58.651000
10
-44.951407
20
58.136889
10
-52.606926
20
57.568111
10
-60.112000
20
56.944000
10
-67.449074
20
56.263889
10
-74.600593
20
55.527111
10
-81.549000
20
54.733000
10
-88.276741
20
53.880889
10
-94.766259
20
52.970111
0
ENDSEC
0
EOF
